<svg width="187" height="182" viewBox="0 0 187 182" fill="none" xmlns="http://www.w3.org/2000/svg">
<path d="M80.5651 181.24C119.85 181.24 151.697 179.256 151.697 176.809C151.697 174.362 119.85 172.378 80.5651 172.378C41.2802 172.378 9.43359 174.362 9.43359 176.809C9.43359 179.256 41.2802 181.24 80.5651 181.24Z" fill="#9B7B39"/>
<path opacity="0.8" d="M80.5651 181.24C119.85 181.24 151.697 179.256 151.697 176.809C151.697 174.362 119.85 172.378 80.5651 172.378C41.2802 172.378 9.43359 174.362 9.43359 176.809C9.43359 179.256 41.2802 181.24 80.5651 181.24Z" fill="#555555"/>
<path d="M134.017 8.3031H62.4946C57.5567 8.3031 53.5537 12.3061 53.5537 17.244V168.241C53.5537 173.179 57.5567 177.182 62.4946 177.182H134.017C138.955 177.182 142.958 173.179 142.958 168.241V17.244C142.958 12.3061 138.955 8.3031 134.017 8.3031Z" fill="#46433D"/>
<path d="M138.982 26.8475H57.5244V158.637H138.982V26.8475Z" fill="white" stroke="#263238" stroke-width="0.765627" stroke-miterlimit="10"/>
<path d="M110.741 80.2129C117.636 73.3177 117.636 62.1383 110.741 55.2431C103.846 48.3479 92.6663 48.3479 85.771 55.2431C78.8758 62.1383 78.8758 73.3177 85.771 80.2129C92.6663 87.1082 103.846 87.1082 110.741 80.2129Z" fill="#9B7B39"/>
<path d="M121.436 150.35H75.0793C74.975 150.35 74.8716 150.33 74.775 150.291C74.6784 150.251 74.5906 150.193 74.5167 150.12C74.4427 150.046 74.384 149.959 74.3439 149.862C74.3038 149.766 74.2832 149.663 74.2832 149.558C74.2826 149.454 74.3028 149.35 74.3426 149.253C74.3824 149.156 74.441 149.068 74.515 148.994C74.5891 148.92 74.6771 148.861 74.7739 148.822C74.8708 148.782 74.9746 148.762 75.0793 148.762H121.436C121.54 148.762 121.643 148.783 121.74 148.823C121.836 148.863 121.924 148.922 121.997 148.996C122.071 149.07 122.129 149.157 122.168 149.254C122.208 149.351 122.228 149.454 122.227 149.558C122.227 149.768 122.144 149.97 121.995 150.118C121.847 150.266 121.646 150.35 121.436 150.35Z" fill="#9B7B39"/>
<path d="M122.946 95.3101H73.5659C72.5468 95.3101 71.7207 96.1362 71.7207 97.1553V102.976C71.7207 103.995 72.5468 104.822 73.5659 104.822H122.946C123.965 104.822 124.791 103.995 124.791 102.976V97.1553C124.791 96.1362 123.965 95.3101 122.946 95.3101Z" fill="#9B7B39"/>
<path d="M122.946 113.1H73.5659C72.5468 113.1 71.7207 113.926 71.7207 114.945V120.766C71.7207 121.785 72.5468 122.611 73.5659 122.611H122.946C123.965 122.611 124.791 121.785 124.791 120.766V114.945C124.791 113.926 123.965 113.1 122.946 113.1Z" fill="#9B7B39"/>
<path d="M107.048 76.5356L101.852 73.5445V71.0735C102.605 70.1634 103.15 69.1003 103.449 67.9582C103.628 68.0217 103.816 68.0544 104.006 68.0548C104.65 68.0548 105.06 66.0578 105.129 64.6313C105.879 63.0437 104.857 62.1142 104.857 62.1142C104.857 62.1142 105.281 61.6908 105.561 59.9928C105.842 58.2949 104.572 59.0035 103.583 57.4482C102.593 55.8928 101.885 54.1994 98.6358 54.1994C97.7407 54.17 96.8574 54.4105 96.1007 54.8898C95.3441 55.3691 94.7491 56.0649 94.3932 56.8868C93.5845 56.8897 92.7787 56.9838 91.9911 57.1675C90.9972 57.4482 90.7165 60.7015 91.5632 61.9761C91.9422 62.6727 92.1445 63.4517 92.1522 64.2447C91.9267 63.9686 91.692 63.895 91.5632 64.5208C91.2825 65.9335 92.4145 67.9122 92.4145 67.9122L92.9989 67.7465C93.2933 68.9671 93.8613 70.1047 94.6601 71.0735V73.5445L89.4649 76.5356C88.8582 76.8859 88.3542 77.3896 88.0037 77.9961C87.6532 78.6027 87.4683 79.2908 87.4678 79.9914V81.7032C90.5576 84.0901 94.3518 85.385 98.2562 85.385C102.161 85.385 105.955 84.0901 109.045 81.7032V79.9914C109.045 79.2906 108.861 78.6022 108.51 77.9954C108.159 77.3887 107.655 76.8852 107.048 76.5356Z" fill="#263238"/>
<path d="M78.4432 120.246C78.3241 120.244 78.2103 120.196 78.1257 120.113C78.0804 120.072 78.0443 120.022 78.0197 119.967C77.9951 119.911 77.9826 119.851 77.983 119.79C77.9845 119.707 78.0083 119.626 78.0521 119.556L78.8803 118.231L77.2652 118.281C77.2043 118.285 77.1433 118.276 77.0862 118.254C77.0292 118.233 76.9772 118.2 76.9339 118.157C76.8588 118.073 76.8174 117.964 76.8174 117.851C76.8174 117.738 76.8588 117.629 76.9339 117.545C76.9763 117.5 77.0279 117.466 77.0852 117.444C77.1424 117.421 77.2039 117.412 77.2652 117.416L78.8573 117.476L78.0383 116.155C77.9937 116.083 77.9698 116.001 77.9692 115.916C77.9688 115.855 77.9813 115.795 78.0059 115.74C78.0305 115.684 78.0666 115.634 78.1119 115.594C78.1965 115.51 78.3103 115.462 78.4294 115.46C78.5078 115.461 78.5845 115.484 78.6504 115.526C78.7164 115.568 78.769 115.629 78.8021 115.7L79.589 117.122L80.3667 115.709C80.4036 115.633 80.4604 115.57 80.5309 115.524C80.6015 115.479 80.6831 115.454 80.767 115.451C80.8252 115.452 80.8826 115.464 80.9357 115.488C80.9888 115.511 81.0363 115.546 81.0753 115.589C81.1598 115.677 81.2061 115.794 81.2042 115.916C81.2039 115.995 81.1833 116.073 81.1443 116.141L80.3114 117.476L81.9266 117.416C81.9879 117.412 82.0494 117.421 82.1066 117.444C82.1639 117.466 82.2155 117.5 82.2579 117.545C82.3364 117.626 82.3794 117.736 82.3776 117.849C82.3773 117.963 82.3346 118.073 82.2579 118.157C82.2146 118.2 82.1627 118.233 82.1056 118.254C82.0485 118.276 81.9875 118.285 81.9266 118.281L80.3022 118.231L81.1121 119.542C81.1575 119.615 81.1814 119.7 81.1811 119.786C81.1811 119.908 81.1327 120.025 81.0464 120.111C80.9601 120.198 80.843 120.246 80.721 120.246C80.6421 120.245 80.5652 120.221 80.4998 120.177C80.4344 120.133 80.3833 120.07 80.3529 119.998L79.5844 118.617L78.8205 119.998C78.7866 120.07 78.7335 120.131 78.6669 120.175C78.6003 120.219 78.5229 120.243 78.4432 120.246Z" fill="#263238"/>
<path d="M85.907 120.246C85.7879 120.244 85.6741 120.197 85.5895 120.113C85.5442 120.072 85.5081 120.022 85.4835 119.967C85.4589 119.911 85.4464 119.851 85.4468 119.79C85.4483 119.707 85.4721 119.626 85.5159 119.556L86.3442 118.231L84.7336 118.281C84.6721 118.284 84.6107 118.274 84.553 118.253C84.4954 118.232 84.4425 118.199 84.3977 118.157C84.3366 118.094 84.2959 118.014 84.2809 117.928C84.2658 117.841 84.2772 117.752 84.3134 117.672C84.3497 117.592 84.4091 117.525 84.4841 117.479C84.559 117.434 84.6459 117.412 84.7336 117.416L86.3211 117.476L85.5021 116.155C85.4575 116.083 85.4336 116.001 85.433 115.916C85.4326 115.855 85.4451 115.795 85.4697 115.74C85.4943 115.684 85.5304 115.634 85.5757 115.594C85.6603 115.51 85.7741 115.462 85.8932 115.46C85.9716 115.461 86.0483 115.484 86.1142 115.526C86.1802 115.568 86.2328 115.629 86.2659 115.7L87.0528 117.122L87.8305 115.709C87.8674 115.633 87.9242 115.57 87.9947 115.524C88.0653 115.479 88.1469 115.454 88.2308 115.451C88.2891 115.451 88.3467 115.463 88.3999 115.487C88.453 115.511 88.5005 115.546 88.5391 115.589C88.5818 115.632 88.6155 115.683 88.6384 115.739C88.6613 115.795 88.6729 115.855 88.6726 115.916C88.6709 115.995 88.6487 116.073 88.6081 116.141L87.7752 117.476L89.395 117.425C89.4556 117.421 89.5164 117.431 89.5729 117.453C89.6294 117.475 89.6802 117.51 89.7217 117.554C89.8002 117.636 89.8432 117.745 89.8414 117.858C89.8411 117.972 89.7984 118.082 89.7217 118.166C89.6793 118.209 89.6281 118.242 89.5718 118.264C89.5154 118.285 89.4552 118.294 89.395 118.29L87.7661 118.24L88.5759 119.551C88.6213 119.624 88.6452 119.709 88.6449 119.795C88.6449 119.917 88.5965 120.034 88.5102 120.12C88.4239 120.207 88.3068 120.255 88.1848 120.255C88.1059 120.254 88.029 120.23 87.9636 120.186C87.8982 120.142 87.8471 120.08 87.8167 120.007L87.0482 118.626L86.2843 120.007C86.2492 120.077 86.1955 120.137 86.129 120.179C86.0625 120.221 85.9857 120.244 85.907 120.246Z" fill="#263238"/>
<path d="M93.3758 120.246C93.255 120.246 93.1394 120.198 93.0536 120.113C93.0084 120.072 92.9722 120.022 92.9476 119.967C92.923 119.911 92.9106 119.851 92.911 119.79C92.9124 119.707 92.9363 119.626 92.98 119.556L93.8083 118.231L92.1977 118.281C92.111 118.285 92.0252 118.262 91.9513 118.217C91.8774 118.171 91.8186 118.105 91.7826 118.026C91.7466 117.947 91.7349 117.859 91.749 117.773C91.7631 117.688 91.8024 117.608 91.8618 117.545C91.9053 117.501 91.9578 117.466 92.0158 117.444C92.0737 117.422 92.1358 117.412 92.1977 117.416L93.7853 117.476L92.9662 116.155C92.9217 116.083 92.8978 116.001 92.8972 115.916C92.8987 115.856 92.912 115.796 92.9365 115.741C92.9609 115.685 92.9961 115.636 93.0398 115.594C93.1256 115.509 93.2412 115.461 93.362 115.46C93.4396 115.462 93.5152 115.485 93.5803 115.527C93.6454 115.57 93.6973 115.629 93.7301 115.7L94.517 117.122L95.2946 115.709C95.3315 115.633 95.3883 115.57 95.4589 115.524C95.5294 115.479 95.6111 115.454 95.695 115.451C95.7532 115.451 95.8108 115.463 95.864 115.487C95.9172 115.511 95.9647 115.546 96.0033 115.589C96.0459 115.632 96.0797 115.683 96.1026 115.739C96.1255 115.795 96.1371 115.855 96.1367 115.916C96.1351 115.995 96.1129 116.073 96.0723 116.141L95.2394 117.476L96.8592 117.416C96.9187 117.41 96.9789 117.417 97.0355 117.436C97.0922 117.455 97.1441 117.487 97.1877 117.528C97.2313 117.569 97.2656 117.618 97.2883 117.674C97.311 117.729 97.3216 117.789 97.3193 117.849C97.3203 117.962 97.2793 118.072 97.2043 118.157C97.1609 118.2 97.109 118.233 97.0519 118.254C96.9948 118.276 96.9338 118.285 96.873 118.281L95.2486 118.231L96.0539 119.542C96.0993 119.615 96.1232 119.7 96.1229 119.786C96.1215 119.846 96.1081 119.906 96.0836 119.961C96.0592 120.016 96.024 120.066 95.9803 120.108C95.9402 120.151 95.8918 120.186 95.838 120.209C95.7842 120.233 95.7262 120.246 95.6674 120.246C95.5891 120.245 95.513 120.22 95.4484 120.176C95.3837 120.132 95.3335 120.07 95.3038 119.998L94.5308 118.617L93.7669 119.998C93.7324 120.072 93.6772 120.135 93.6079 120.179C93.5385 120.223 93.4579 120.247 93.3758 120.246Z" fill="#263238"/>
<path d="M100.839 120.246C100.719 120.246 100.603 120.198 100.517 120.113C100.431 120.028 100.381 119.912 100.379 119.79C100.378 119.708 100.4 119.626 100.444 119.556L101.272 118.231L99.6614 118.281C99.5999 118.284 99.5386 118.274 99.4809 118.253C99.4232 118.232 99.3703 118.199 99.3255 118.157C99.2504 118.073 99.209 117.964 99.209 117.851C99.209 117.738 99.2504 117.629 99.3255 117.545C99.3699 117.502 99.4226 117.468 99.4803 117.446C99.538 117.424 99.5996 117.414 99.6614 117.416L101.254 117.476L100.439 116.155C100.394 116.083 100.371 116.001 100.37 115.916C100.371 115.856 100.385 115.796 100.409 115.741C100.434 115.685 100.469 115.636 100.513 115.594C100.598 115.509 100.714 115.461 100.835 115.46C100.913 115.461 100.99 115.484 101.056 115.526C101.122 115.568 101.174 115.629 101.208 115.7L101.99 117.122L102.767 115.709C102.804 115.633 102.861 115.57 102.932 115.524C103.002 115.479 103.084 115.454 103.168 115.451C103.226 115.451 103.284 115.463 103.337 115.487C103.39 115.511 103.438 115.546 103.476 115.589C103.519 115.632 103.553 115.683 103.575 115.739C103.598 115.795 103.61 115.855 103.61 115.916C103.608 115.995 103.586 116.073 103.545 116.141L102.712 117.476L104.332 117.416C104.392 117.41 104.452 117.417 104.508 117.436C104.565 117.455 104.617 117.487 104.661 117.528C104.704 117.569 104.738 117.618 104.761 117.674C104.784 117.729 104.794 117.789 104.792 117.849C104.793 117.962 104.752 118.072 104.677 118.157C104.634 118.2 104.582 118.233 104.525 118.254C104.468 118.276 104.407 118.285 104.346 118.281L102.721 118.231L103.527 119.542C103.572 119.615 103.596 119.7 103.596 119.786C103.596 119.847 103.584 119.907 103.559 119.962C103.535 120.018 103.498 120.067 103.453 120.108C103.413 120.151 103.365 120.186 103.311 120.209C103.257 120.233 103.199 120.246 103.14 120.246C103.062 120.245 102.986 120.22 102.921 120.176C102.857 120.132 102.806 120.07 102.777 119.998L102.004 118.617L101.24 119.998C101.205 120.074 101.148 120.138 101.077 120.182C101.006 120.226 100.923 120.248 100.839 120.246Z" fill="#263238"/>
<path d="M108.303 120.246C108.183 120.246 108.067 120.198 107.981 120.113C107.91 120.04 107.864 119.947 107.852 119.846C107.839 119.745 107.861 119.643 107.912 119.556L108.736 118.231L107.125 118.281C107.064 118.284 107.002 118.274 106.945 118.253C106.887 118.232 106.834 118.199 106.789 118.157C106.714 118.073 106.673 117.964 106.673 117.851C106.673 117.738 106.714 117.629 106.789 117.545C106.834 117.502 106.886 117.468 106.944 117.446C107.002 117.424 107.063 117.414 107.125 117.416L108.717 117.476L107.898 116.155C107.854 116.083 107.83 116.001 107.829 115.916C107.831 115.795 107.881 115.679 107.967 115.594C108.053 115.509 108.169 115.461 108.289 115.46C108.368 115.461 108.445 115.484 108.51 115.526C108.576 115.568 108.629 115.629 108.662 115.7L109.444 117.122L110.222 115.709C110.259 115.633 110.316 115.57 110.386 115.524C110.457 115.479 110.539 115.454 110.622 115.451C110.681 115.451 110.74 115.463 110.794 115.487C110.848 115.511 110.896 115.545 110.935 115.589C111.02 115.677 111.066 115.794 111.064 115.916C111.063 115.995 111.04 116.073 111 116.141L110.167 117.476L111.787 117.416C111.846 117.41 111.906 117.417 111.963 117.436C112.02 117.455 112.072 117.487 112.115 117.528C112.159 117.569 112.193 117.618 112.216 117.674C112.239 117.729 112.249 117.789 112.247 117.849C112.248 117.962 112.207 118.072 112.132 118.157C112.088 118.2 112.037 118.233 111.979 118.254C111.922 118.276 111.861 118.285 111.8 118.281L110.176 118.231L110.981 119.542C111.027 119.615 111.051 119.7 111.05 119.786C111.051 119.847 111.038 119.907 111.014 119.962C110.989 120.018 110.953 120.068 110.908 120.108C110.868 120.151 110.819 120.186 110.766 120.209C110.712 120.233 110.654 120.246 110.595 120.246C110.517 120.245 110.44 120.22 110.376 120.176C110.311 120.132 110.261 120.07 110.231 119.998L109.458 118.617L108.694 119.998C108.66 120.072 108.605 120.135 108.535 120.179C108.466 120.223 108.385 120.247 108.303 120.246Z" fill="#263238"/>
<path d="M115.767 120.246C115.648 120.244 115.534 120.197 115.45 120.113C115.404 120.072 115.368 120.022 115.344 119.967C115.319 119.911 115.307 119.851 115.307 119.79C115.308 119.707 115.332 119.626 115.376 119.556L116.2 118.231L114.589 118.281C114.53 118.286 114.47 118.278 114.414 118.258C114.358 118.238 114.307 118.207 114.264 118.166C114.22 118.126 114.186 118.076 114.163 118.022C114.14 117.967 114.128 117.908 114.129 117.849C114.129 117.792 114.139 117.736 114.161 117.684C114.182 117.632 114.214 117.585 114.253 117.545C114.296 117.5 114.347 117.466 114.404 117.444C114.462 117.421 114.523 117.412 114.584 117.416L116.177 117.476L115.358 116.155C115.313 116.083 115.289 116.001 115.289 115.916C115.29 115.795 115.34 115.679 115.427 115.594C115.512 115.509 115.628 115.461 115.749 115.46C115.827 115.461 115.904 115.484 115.97 115.526C116.036 115.568 116.088 115.629 116.121 115.7L116.904 117.122L117.686 115.709C117.723 115.634 117.779 115.571 117.848 115.525C117.918 115.48 117.999 115.454 118.082 115.451C118.141 115.451 118.199 115.463 118.253 115.487C118.307 115.511 118.355 115.545 118.395 115.589C118.479 115.677 118.525 115.794 118.523 115.916C118.523 115.995 118.503 116.073 118.464 116.141L117.631 117.476L119.246 117.416C119.307 117.412 119.369 117.421 119.426 117.444C119.483 117.466 119.535 117.5 119.577 117.545C119.656 117.626 119.699 117.736 119.697 117.849C119.697 117.963 119.654 118.073 119.577 118.157C119.534 118.2 119.482 118.233 119.425 118.254C119.368 118.276 119.307 118.285 119.246 118.281L117.622 118.231L118.427 119.542C118.472 119.615 118.496 119.7 118.496 119.786C118.494 119.907 118.445 120.023 118.358 120.108C118.274 120.194 118.16 120.243 118.04 120.246C117.962 120.245 117.886 120.22 117.821 120.176C117.757 120.132 117.706 120.07 117.677 119.998L116.904 118.617L116.14 119.998C116.107 120.069 116.054 120.131 115.989 120.174C115.923 120.218 115.846 120.243 115.767 120.246Z" fill="#263238"/>
<g style="mix-blend-mode:multiply">
<path d="M138.982 27.0223H57.5244V32.1255H138.982V27.0223Z" fill="#9B7B39"/>
</g>
<path d="M107.111 17.6213H89.3951C89.0753 17.6213 88.7687 17.4943 88.5426 17.2682C88.3165 17.0421 88.1895 16.7354 88.1895 16.4157C88.1895 16.0959 88.3165 15.7893 88.5426 15.5632C88.7687 15.3371 89.0753 15.2101 89.3951 15.2101H107.111C107.431 15.2101 107.738 15.3371 107.964 15.5632C108.19 15.7893 108.317 16.0959 108.317 16.4157C108.317 16.7354 108.19 17.0421 107.964 17.2682C107.738 17.4943 107.431 17.6213 107.111 17.6213Z" fill="#9B7B39" stroke="#263238" stroke-width="0.765627" stroke-linecap="round" stroke-linejoin="round"/>
<path d="M103.085 166.083C103.086 165.127 102.803 164.192 102.273 163.397C101.742 162.601 100.988 161.981 100.105 161.615C99.2216 161.249 98.2498 161.153 97.3121 161.339C96.3744 161.525 95.513 161.986 94.837 162.662C94.161 163.338 93.7008 164.199 93.5145 165.137C93.3282 166.074 93.4243 167.046 93.7905 167.929C94.1568 168.812 94.7768 169.567 95.5721 170.097C96.3674 170.628 97.3021 170.911 98.2582 170.91C99.538 170.908 100.765 170.4 101.67 169.495C102.575 168.59 103.084 167.362 103.085 166.083Z" fill="#9B7B39"/>
<path d="M100.706 163.635H95.8096V168.531H100.706V163.635Z" fill="#9B7B39" stroke="#263238" stroke-width="0.765627" stroke-linecap="round" stroke-linejoin="round"/>
<path d="M156.579 110.523C156.579 110.523 150.164 94.2242 155.875 92.2869C161.82 90.2668 161.558 101.03 161.327 106.276C160.844 117.485 159.606 119.57 158.682 116.832L156.579 110.523ZM154.651 123.237C156.413 125.538 156.91 123.154 153.73 112.391C152.239 107.33 149 97.091 144.03 100.933C139.258 104.615 150.615 117.959 150.615 117.959L154.651 123.237ZM151.245 132.579C152.925 134.069 152.957 132.187 148.968 124.415C147.095 120.775 143.133 113.408 139.889 117.053C136.773 120.568 147.389 129.113 147.389 129.113L151.245 132.579ZM147.564 143.687C149.244 145.182 149.276 143.296 145.286 135.528C143.413 131.888 139.451 124.517 136.207 128.166C133.11 131.69 143.694 140.236 143.694 140.236L147.564 143.687ZM158.194 121.075C155.506 122.124 157.642 123.265 168.865 123.233C174.129 123.233 184.878 122.993 182.587 117.145C180.392 111.526 164.406 118.682 164.406 118.682L158.194 121.075ZM155.134 128.548C152.29 129.04 154.158 130.586 165.165 132.786C170.324 133.821 180.903 135.731 179.821 129.564C178.786 123.619 161.696 127.457 161.696 127.457L155.134 128.548ZM151.71 137.672C149.29 138.022 150.836 139.37 160.09 141.487C164.429 142.481 173.333 144.345 172.56 139.085C171.824 134.023 157.283 136.886 157.283 136.886L151.71 137.672ZM149.11 146.126C146.74 146.728 148.42 147.906 157.853 149.029C162.271 149.554 171.322 150.465 170.001 145.316C168.727 140.374 154.572 144.75 154.572 144.75L149.11 146.126ZM162.979 111.904C161.599 114.996 164.466 114.526 174.212 106.023C178.777 102.033 187.934 93.6858 180.682 89.5306C173.72 85.5364 166.233 104.808 166.233 104.808L162.979 111.904ZM149.469 157.137C148.01 157.989 149.442 158.32 156.132 156.985C159.271 156.364 165.653 154.984 163.495 152.26C161.406 149.637 152.847 155.159 152.847 155.159L149.469 157.137Z" fill="#9B7B39"/>
<path opacity="0.3" d="M156.579 110.523C156.579 110.523 150.164 94.2242 155.875 92.2869C161.82 90.2668 161.558 101.03 161.327 106.276C160.844 117.485 159.606 119.57 158.682 116.832L156.579 110.523ZM154.651 123.237C156.413 125.538 156.91 123.154 153.73 112.391C152.239 107.33 149 97.091 144.03 100.933C139.258 104.615 150.615 117.959 150.615 117.959L154.651 123.237ZM151.245 132.579C152.925 134.069 152.957 132.187 148.968 124.415C147.095 120.775 143.133 113.408 139.889 117.053C136.773 120.568 147.389 129.113 147.389 129.113L151.245 132.579ZM147.564 143.687C149.244 145.182 149.276 143.296 145.286 135.528C143.413 131.888 139.451 124.517 136.207 128.166C133.11 131.69 143.694 140.236 143.694 140.236L147.564 143.687ZM158.194 121.075C155.506 122.124 157.642 123.265 168.865 123.233C174.129 123.233 184.878 122.993 182.587 117.145C180.392 111.526 164.406 118.682 164.406 118.682L158.194 121.075ZM155.134 128.548C152.29 129.04 154.158 130.586 165.165 132.786C170.324 133.821 180.903 135.731 179.821 129.564C178.786 123.619 161.696 127.457 161.696 127.457L155.134 128.548ZM151.71 137.672C149.29 138.022 150.836 139.37 160.09 141.487C164.429 142.481 173.333 144.345 172.56 139.085C171.824 134.023 157.283 136.886 157.283 136.886L151.71 137.672ZM149.11 146.126C146.74 146.728 148.42 147.906 157.853 149.029C162.271 149.554 171.322 150.465 170.001 145.316C168.727 140.374 154.572 144.75 154.572 144.75L149.11 146.126ZM162.979 111.904C161.599 114.996 164.466 114.526 174.212 106.023C178.777 102.033 187.934 93.6858 180.682 89.5306C173.72 85.5364 166.233 104.808 166.233 104.808L162.979 111.904ZM149.469 157.137C148.01 157.989 149.442 158.32 156.132 156.985C159.271 156.364 165.653 154.984 163.495 152.26C161.406 149.637 152.847 155.159 152.847 155.159L149.469 157.137Z" fill="white"/>
<path d="M159.409 118.111L158.29 99.5068L159.409 118.111ZM155.87 124.25L148.802 108.25L155.87 124.25ZM174.111 119.597L157.172 122.027L174.111 119.597ZM152.207 132.873L143.036 121.107L152.207 132.873ZM153.818 129.265L166.454 129.9L153.818 129.265ZM150.827 138.289L160.49 139.246L150.827 138.289ZM148.494 144.023L143.694 136.803L148.494 144.023ZM147.941 146.572L159.303 146.678L147.941 146.572ZM145.641 167.887C145.717 167.881 145.787 167.845 145.837 167.787C145.887 167.73 145.913 167.654 145.907 167.578C145.185 156.728 149.382 138.956 156.114 124.369C160.416 115.046 177.281 96.7228 177.461 96.5388C177.515 96.4844 177.545 96.4108 177.545 96.334C177.545 96.2572 177.515 96.1836 177.461 96.1292C177.434 96.1025 177.403 96.0813 177.368 96.0668C177.333 96.0524 177.296 96.0449 177.258 96.0449C177.22 96.0449 177.183 96.0524 177.148 96.0668C177.114 96.0813 177.082 96.1025 177.056 96.1292C176.885 96.3133 159.952 114.706 155.612 124.112C148.756 139.053 144.614 156.502 145.351 167.615C145.356 167.688 145.389 167.757 145.443 167.807C145.497 167.857 145.567 167.886 145.641 167.887ZM159.404 118.396C159.48 118.392 159.551 118.357 159.602 118.3C159.653 118.243 159.679 118.169 159.675 118.093L158.576 99.4792C158.574 99.4413 158.565 99.4041 158.548 99.3699C158.532 99.3356 158.509 99.305 158.481 99.2797C158.453 99.2544 158.419 99.235 158.384 99.2226C158.348 99.2103 158.31 99.2052 158.272 99.2077C158.196 99.2124 158.125 99.247 158.074 99.3038C158.023 99.3607 157.997 99.4352 158 99.5114L159.119 118.116C159.122 118.189 159.154 118.258 159.207 118.309C159.26 118.359 159.331 118.387 159.404 118.387V118.396ZM155.971 124.512C156.04 124.481 156.094 124.424 156.122 124.353C156.149 124.283 156.148 124.204 156.118 124.135L149.046 108.135C149.015 108.065 148.958 108.011 148.888 107.983C148.817 107.955 148.738 107.957 148.668 107.988C148.599 108.018 148.544 108.075 148.517 108.146C148.489 108.216 148.491 108.295 148.521 108.365L155.589 124.365C155.611 124.416 155.648 124.46 155.695 124.491C155.741 124.522 155.796 124.539 155.852 124.539C155.899 124.542 155.947 124.532 155.99 124.512H155.971ZM157.195 122.303L174.124 119.883C174.165 119.882 174.206 119.872 174.243 119.855C174.279 119.837 174.312 119.812 174.339 119.781C174.365 119.75 174.385 119.714 174.397 119.674C174.408 119.635 174.411 119.594 174.406 119.553C174.4 119.513 174.386 119.474 174.364 119.439C174.343 119.405 174.314 119.375 174.28 119.352C174.246 119.329 174.208 119.314 174.167 119.307C174.127 119.3 174.086 119.302 174.046 119.312L157.117 121.733C157.041 121.737 156.971 121.772 156.921 121.829C156.871 121.886 156.845 121.961 156.85 122.036C156.855 122.112 156.89 122.183 156.947 122.233C157.004 122.283 157.078 122.308 157.154 122.303H157.195ZM152.368 133.103C152.428 133.056 152.467 132.987 152.477 132.911C152.486 132.835 152.465 132.759 152.419 132.698L143.243 120.909C143.196 120.848 143.127 120.808 143.05 120.798C142.974 120.788 142.897 120.809 142.836 120.856C142.775 120.903 142.735 120.972 142.725 121.049C142.715 121.125 142.736 121.202 142.783 121.263L151.977 133.071C152.004 133.105 152.038 133.133 152.077 133.152C152.116 133.171 152.159 133.181 152.202 133.181C152.271 133.178 152.336 133.15 152.387 133.103H152.368ZM166.707 129.914C166.709 129.838 166.682 129.764 166.63 129.708C166.578 129.652 166.507 129.619 166.431 129.615L153.818 128.975C153.747 128.98 153.68 129.011 153.63 129.062C153.581 129.113 153.551 129.18 153.548 129.251C153.545 129.322 153.567 129.391 153.612 129.447C153.657 129.502 153.72 129.539 153.79 129.551L166.426 130.19C166.502 130.193 166.576 130.165 166.632 130.114C166.688 130.062 166.721 129.99 166.725 129.914H166.707ZM160.757 139.274C160.761 139.236 160.758 139.198 160.747 139.161C160.737 139.124 160.719 139.09 160.695 139.061C160.671 139.031 160.641 139.007 160.608 138.989C160.574 138.971 160.537 138.96 160.499 138.956L150.836 138.004C150.798 138 150.76 138.004 150.724 138.015C150.688 138.025 150.655 138.043 150.626 138.067C150.596 138.091 150.572 138.121 150.555 138.154C150.537 138.187 150.526 138.224 150.523 138.261C150.516 138.337 150.54 138.412 150.588 138.47C150.636 138.529 150.705 138.566 150.781 138.574L160.444 139.531H160.472C160.546 139.537 160.619 139.513 160.676 139.464C160.733 139.416 160.768 139.348 160.775 139.274H160.757ZM148.632 144.262C148.696 144.22 148.74 144.154 148.756 144.079C148.771 144.004 148.756 143.926 148.714 143.862L143.938 136.642C143.894 136.579 143.828 136.537 143.754 136.522C143.679 136.507 143.602 136.522 143.538 136.563C143.474 136.606 143.429 136.672 143.414 136.747C143.398 136.822 143.413 136.9 143.455 136.964L148.231 144.184C148.259 144.223 148.295 144.255 148.337 144.278C148.38 144.3 148.427 144.312 148.475 144.313C148.537 144.316 148.599 144.298 148.65 144.262H148.632ZM159.593 146.678C159.591 146.602 159.561 146.53 159.508 146.476C159.455 146.422 159.383 146.39 159.307 146.388L147.946 146.282C147.87 146.282 147.798 146.312 147.744 146.366C147.691 146.419 147.661 146.492 147.661 146.567C147.659 146.605 147.666 146.643 147.68 146.679C147.694 146.714 147.714 146.746 147.741 146.773C147.768 146.801 147.8 146.822 147.835 146.836C147.87 146.851 147.908 146.858 147.946 146.857L159.307 146.963C159.346 146.965 159.385 146.959 159.421 146.946C159.458 146.932 159.491 146.911 159.52 146.885C159.548 146.858 159.571 146.826 159.586 146.791C159.602 146.755 159.61 146.717 159.611 146.678H159.593ZM144.348 163.667C144.371 163.616 146.308 158.278 152.133 157.004C152.208 156.987 152.274 156.942 152.315 156.877C152.357 156.812 152.371 156.734 152.354 156.659C152.336 156.585 152.289 156.522 152.225 156.481C152.161 156.441 152.083 156.427 152.009 156.442C145.866 157.786 143.828 163.423 143.805 163.478C143.781 163.551 143.786 163.63 143.82 163.699C143.853 163.767 143.912 163.82 143.984 163.846H144.076C144.137 163.852 144.198 163.837 144.251 163.805C144.303 163.772 144.343 163.724 144.366 163.667H144.348ZM145.641 167.887C145.717 167.881 145.787 167.845 145.837 167.787C145.887 167.73 145.913 167.654 145.907 167.578C145.185 156.728 149.382 138.956 156.114 124.369C160.416 115.046 177.281 96.7228 177.461 96.5388C177.515 96.4844 177.545 96.4108 177.545 96.334C177.545 96.2572 177.515 96.1836 177.461 96.1292C177.434 96.1025 177.403 96.0813 177.368 96.0668C177.333 96.0524 177.296 96.0449 177.258 96.0449C177.22 96.0449 177.183 96.0524 177.148 96.0668C177.114 96.0813 177.082 96.1025 177.056 96.1292C176.885 96.3133 159.952 114.706 155.612 124.112C148.756 139.053 144.614 156.502 145.351 167.615C145.356 167.688 145.389 167.757 145.443 167.807C145.497 167.857 145.567 167.886 145.641 167.887ZM159.404 118.396C159.48 118.392 159.551 118.357 159.602 118.3C159.653 118.243 159.679 118.169 159.675 118.093L158.576 99.4792C158.574 99.4413 158.565 99.4041 158.548 99.3699C158.532 99.3356 158.509 99.305 158.481 99.2797C158.453 99.2544 158.419 99.235 158.384 99.2226C158.348 99.2103 158.31 99.2052 158.272 99.2077C158.196 99.2124 158.125 99.247 158.074 99.3038C158.023 99.3607 157.997 99.4352 158 99.5114L159.119 118.116C159.122 118.189 159.154 118.258 159.207 118.309C159.26 118.359 159.331 118.387 159.404 118.387V118.396ZM155.971 124.512C156.04 124.481 156.094 124.424 156.122 124.353C156.149 124.283 156.148 124.204 156.118 124.135L149.046 108.135C149.015 108.065 148.958 108.011 148.888 107.983C148.817 107.955 148.738 107.957 148.668 107.988C148.599 108.018 148.544 108.075 148.517 108.146C148.489 108.216 148.491 108.295 148.521 108.365L155.589 124.365C155.611 124.416 155.648 124.46 155.695 124.491C155.741 124.522 155.796 124.539 155.852 124.539C155.899 124.542 155.947 124.532 155.99 124.512H155.971ZM157.195 122.303L174.124 119.883C174.165 119.882 174.206 119.872 174.243 119.855C174.279 119.837 174.312 119.812 174.339 119.781C174.365 119.75 174.385 119.714 174.397 119.674C174.408 119.635 174.411 119.594 174.406 119.553C174.4 119.513 174.386 119.474 174.364 119.439C174.343 119.405 174.314 119.375 174.28 119.352C174.246 119.329 174.208 119.314 174.167 119.307C174.127 119.3 174.086 119.302 174.046 119.312L157.117 121.733C157.041 121.737 156.971 121.772 156.921 121.829C156.871 121.886 156.845 121.961 156.85 122.036C156.855 122.112 156.89 122.183 156.947 122.233C157.004 122.283 157.078 122.308 157.154 122.303H157.195ZM152.368 133.103C152.428 133.056 152.467 132.987 152.477 132.911C152.486 132.835 152.465 132.759 152.419 132.698L143.243 120.909C143.22 120.879 143.191 120.853 143.158 120.834C143.125 120.815 143.088 120.803 143.05 120.798C143.013 120.793 142.974 120.796 142.937 120.806C142.901 120.816 142.866 120.833 142.836 120.856C142.806 120.879 142.78 120.908 142.761 120.941C142.742 120.974 142.73 121.011 142.725 121.049C142.72 121.086 142.723 121.125 142.733 121.162C142.743 121.198 142.76 121.233 142.783 121.263L151.977 133.071C152.004 133.105 152.038 133.133 152.077 133.152C152.116 133.171 152.159 133.181 152.202 133.181C152.271 133.178 152.336 133.15 152.387 133.103H152.368ZM166.707 129.914C166.709 129.838 166.682 129.764 166.63 129.708C166.578 129.652 166.507 129.619 166.431 129.615L153.818 128.975C153.747 128.98 153.68 129.011 153.63 129.062C153.581 129.113 153.551 129.18 153.548 129.251C153.545 129.322 153.567 129.391 153.612 129.447C153.657 129.502 153.72 129.539 153.79 129.551L166.426 130.19C166.502 130.193 166.576 130.165 166.632 130.114C166.688 130.062 166.721 129.99 166.725 129.914H166.707ZM160.757 139.274C160.761 139.236 160.758 139.198 160.747 139.161C160.737 139.124 160.719 139.09 160.695 139.061C160.671 139.031 160.641 139.007 160.608 138.989C160.574 138.971 160.537 138.96 160.499 138.956L150.836 138.004C150.798 138 150.76 138.004 150.724 138.015C150.688 138.025 150.655 138.043 150.626 138.067C150.596 138.091 150.572 138.121 150.555 138.154C150.537 138.187 150.526 138.224 150.523 138.261C150.516 138.337 150.54 138.412 150.588 138.47C150.636 138.529 150.705 138.566 150.781 138.574L160.444 139.531H160.472C160.546 139.537 160.619 139.513 160.676 139.464C160.733 139.416 160.768 139.348 160.775 139.274H160.757ZM148.632 144.262C148.696 144.22 148.74 144.154 148.756 144.079C148.771 144.004 148.756 143.926 148.714 143.862L143.938 136.642C143.894 136.579 143.828 136.537 143.754 136.522C143.679 136.507 143.602 136.522 143.538 136.563C143.474 136.606 143.429 136.672 143.414 136.747C143.398 136.822 143.413 136.9 143.455 136.964L148.231 144.184C148.259 144.223 148.295 144.255 148.337 144.278C148.38 144.3 148.427 144.312 148.475 144.313C148.537 144.316 148.599 144.298 148.65 144.262H148.632ZM159.593 146.678C159.591 146.602 159.561 146.53 159.508 146.476C159.455 146.422 159.383 146.39 159.307 146.388L147.946 146.282C147.87 146.282 147.798 146.312 147.744 146.366C147.691 146.419 147.661 146.492 147.661 146.567C147.659 146.605 147.666 146.643 147.68 146.679C147.694 146.714 147.714 146.746 147.741 146.773C147.768 146.801 147.8 146.822 147.835 146.836C147.87 146.851 147.908 146.858 147.946 146.857L159.307 146.963C159.346 146.965 159.385 146.959 159.421 146.946C159.458 146.932 159.491 146.911 159.52 146.885C159.548 146.858 159.571 146.826 159.586 146.791C159.602 146.755 159.61 146.717 159.611 146.678H159.593ZM144.348 163.667C144.371 163.616 146.308 158.278 152.133 157.004C152.208 156.987 152.274 156.942 152.315 156.877C152.357 156.812 152.371 156.734 152.354 156.659C152.336 156.585 152.289 156.522 152.225 156.481C152.161 156.441 152.083 156.427 152.009 156.442C145.866 157.786 143.828 163.423 143.805 163.478C143.781 163.551 143.786 163.63 143.82 163.699C143.853 163.767 143.912 163.82 143.984 163.846H144.076C144.137 163.852 144.198 163.837 144.251 163.805C144.303 163.772 144.343 163.724 144.366 163.667H144.348Z" fill="#9B7B39"/>
<path opacity="0.2" d="M159.409 118.111L158.29 99.5068L159.409 118.111ZM155.87 124.25L148.802 108.25L155.87 124.25ZM174.111 119.597L157.172 122.027L174.111 119.597ZM152.207 132.873L143.036 121.107L152.207 132.873ZM153.818 129.265L166.454 129.9L153.818 129.265ZM150.827 138.289L160.49 139.246L150.827 138.289ZM148.494 144.023L143.694 136.803L148.494 144.023ZM147.941 146.572L159.303 146.678L147.941 146.572ZM145.641 167.887C145.717 167.881 145.787 167.845 145.837 167.787C145.887 167.73 145.913 167.654 145.907 167.578C145.185 156.728 149.382 138.956 156.114 124.369C160.416 115.046 177.281 96.7228 177.461 96.5388C177.515 96.4844 177.545 96.4108 177.545 96.334C177.545 96.2572 177.515 96.1836 177.461 96.1292C177.434 96.1025 177.403 96.0813 177.368 96.0668C177.333 96.0524 177.296 96.0449 177.258 96.0449C177.22 96.0449 177.183 96.0524 177.148 96.0668C177.114 96.0813 177.082 96.1025 177.056 96.1292C176.885 96.3133 159.952 114.706 155.612 124.112C148.756 139.053 144.614 156.502 145.351 167.615C145.356 167.688 145.389 167.757 145.443 167.807C145.497 167.857 145.567 167.886 145.641 167.887ZM159.404 118.396C159.48 118.392 159.551 118.357 159.602 118.3C159.653 118.243 159.679 118.169 159.675 118.093L158.576 99.4792C158.574 99.4413 158.565 99.4041 158.548 99.3699C158.532 99.3356 158.509 99.305 158.481 99.2797C158.453 99.2544 158.419 99.235 158.384 99.2226C158.348 99.2103 158.31 99.2052 158.272 99.2077C158.196 99.2124 158.125 99.247 158.074 99.3038C158.023 99.3607 157.997 99.4352 158 99.5114L159.119 118.116C159.122 118.189 159.154 118.258 159.207 118.309C159.26 118.359 159.331 118.387 159.404 118.387V118.396ZM155.971 124.512C156.04 124.481 156.094 124.424 156.122 124.353C156.149 124.283 156.148 124.204 156.118 124.135L149.046 108.135C149.015 108.065 148.958 108.011 148.888 107.983C148.817 107.955 148.738 107.957 148.668 107.988C148.599 108.018 148.544 108.075 148.517 108.146C148.489 108.216 148.491 108.295 148.521 108.365L155.589 124.365C155.611 124.416 155.648 124.46 155.695 124.491C155.741 124.522 155.796 124.539 155.852 124.539C155.899 124.542 155.947 124.532 155.99 124.512H155.971ZM157.195 122.303L174.124 119.883C174.165 119.882 174.206 119.872 174.243 119.855C174.279 119.837 174.312 119.812 174.339 119.781C174.365 119.75 174.385 119.714 174.397 119.674C174.408 119.635 174.411 119.594 174.406 119.553C174.4 119.513 174.386 119.474 174.364 119.439C174.343 119.405 174.314 119.375 174.28 119.352C174.246 119.329 174.208 119.314 174.167 119.307C174.127 119.3 174.086 119.302 174.046 119.312L157.117 121.733C157.041 121.737 156.971 121.772 156.921 121.829C156.871 121.886 156.845 121.961 156.85 122.036C156.855 122.112 156.89 122.183 156.947 122.233C157.004 122.283 157.078 122.308 157.154 122.303H157.195ZM152.368 133.103C152.428 133.056 152.467 132.987 152.477 132.911C152.486 132.835 152.465 132.759 152.419 132.698L143.243 120.909C143.196 120.848 143.127 120.808 143.05 120.798C142.974 120.788 142.897 120.809 142.836 120.856C142.775 120.903 142.735 120.972 142.725 121.049C142.715 121.125 142.736 121.202 142.783 121.263L151.977 133.071C152.004 133.105 152.038 133.133 152.077 133.152C152.116 133.171 152.159 133.181 152.202 133.181C152.271 133.178 152.336 133.15 152.387 133.103H152.368ZM166.707 129.914C166.709 129.838 166.682 129.764 166.63 129.708C166.578 129.652 166.507 129.619 166.431 129.615L153.818 128.975C153.747 128.98 153.68 129.011 153.63 129.062C153.581 129.113 153.551 129.18 153.548 129.251C153.545 129.322 153.567 129.391 153.612 129.447C153.657 129.502 153.72 129.539 153.79 129.551L166.426 130.19C166.502 130.193 166.576 130.165 166.632 130.114C166.688 130.062 166.721 129.99 166.725 129.914H166.707ZM160.757 139.274C160.761 139.236 160.758 139.198 160.747 139.161C160.737 139.124 160.719 139.09 160.695 139.061C160.671 139.031 160.641 139.007 160.608 138.989C160.574 138.971 160.537 138.96 160.499 138.956L150.836 138.004C150.798 138 150.76 138.004 150.724 138.015C150.688 138.025 150.655 138.043 150.626 138.067C150.596 138.091 150.572 138.121 150.555 138.154C150.537 138.187 150.526 138.224 150.523 138.261C150.516 138.337 150.54 138.412 150.588 138.47C150.636 138.529 150.705 138.566 150.781 138.574L160.444 139.531H160.472C160.546 139.537 160.619 139.513 160.676 139.464C160.733 139.416 160.768 139.348 160.775 139.274H160.757ZM148.632 144.262C148.696 144.22 148.74 144.154 148.756 144.079C148.771 144.004 148.756 143.926 148.714 143.862L143.938 136.642C143.894 136.579 143.828 136.537 143.754 136.522C143.679 136.507 143.602 136.522 143.538 136.563C143.474 136.606 143.429 136.672 143.414 136.747C143.398 136.822 143.413 136.9 143.455 136.964L148.231 144.184C148.259 144.223 148.295 144.255 148.337 144.278C148.38 144.3 148.427 144.312 148.475 144.313C148.537 144.316 148.599 144.298 148.65 144.262H148.632ZM159.593 146.678C159.591 146.602 159.561 146.53 159.508 146.476C159.455 146.422 159.383 146.39 159.307 146.388L147.946 146.282C147.87 146.282 147.798 146.312 147.744 146.366C147.691 146.419 147.661 146.492 147.661 146.567C147.659 146.605 147.666 146.643 147.68 146.679C147.694 146.714 147.714 146.746 147.741 146.773C147.768 146.801 147.8 146.822 147.835 146.836C147.87 146.851 147.908 146.858 147.946 146.857L159.307 146.963C159.346 146.965 159.385 146.959 159.421 146.946C159.458 146.932 159.491 146.911 159.52 146.885C159.548 146.858 159.571 146.826 159.586 146.791C159.602 146.755 159.61 146.717 159.611 146.678H159.593ZM144.348 163.667C144.371 163.616 146.308 158.278 152.133 157.004C152.208 156.987 152.274 156.942 152.315 156.877C152.357 156.812 152.371 156.734 152.354 156.659C152.336 156.585 152.289 156.522 152.225 156.481C152.161 156.441 152.083 156.427 152.009 156.442C145.866 157.786 143.828 163.423 143.805 163.478C143.781 163.551 143.786 163.63 143.82 163.699C143.853 163.767 143.912 163.82 143.984 163.846H144.076C144.137 163.852 144.198 163.837 144.251 163.805C144.303 163.772 144.343 163.724 144.366 163.667H144.348ZM145.641 167.887C145.717 167.881 145.787 167.845 145.837 167.787C145.887 167.73 145.913 167.654 145.907 167.578C145.185 156.728 149.382 138.956 156.114 124.369C160.416 115.046 177.281 96.7228 177.461 96.5388C177.515 96.4844 177.545 96.4108 177.545 96.334C177.545 96.2572 177.515 96.1836 177.461 96.1292C177.434 96.1025 177.403 96.0813 177.368 96.0668C177.333 96.0524 177.296 96.0449 177.258 96.0449C177.22 96.0449 177.183 96.0524 177.148 96.0668C177.114 96.0813 177.082 96.1025 177.056 96.1292C176.885 96.3133 159.952 114.706 155.612 124.112C148.756 139.053 144.614 156.502 145.351 167.615C145.356 167.688 145.389 167.757 145.443 167.807C145.497 167.857 145.567 167.886 145.641 167.887ZM159.404 118.396C159.48 118.392 159.551 118.357 159.602 118.3C159.653 118.243 159.679 118.169 159.675 118.093L158.576 99.4792C158.574 99.4413 158.565 99.4041 158.548 99.3699C158.532 99.3356 158.509 99.305 158.481 99.2797C158.453 99.2544 158.419 99.235 158.384 99.2226C158.348 99.2103 158.31 99.2052 158.272 99.2077C158.196 99.2124 158.125 99.247 158.074 99.3038C158.023 99.3607 157.997 99.4352 158 99.5114L159.119 118.116C159.122 118.189 159.154 118.258 159.207 118.309C159.26 118.359 159.331 118.387 159.404 118.387V118.396ZM155.971 124.512C156.04 124.481 156.094 124.424 156.122 124.353C156.149 124.283 156.148 124.204 156.118 124.135L149.046 108.135C149.015 108.065 148.958 108.011 148.888 107.983C148.817 107.955 148.738 107.957 148.668 107.988C148.599 108.018 148.544 108.075 148.517 108.146C148.489 108.216 148.491 108.295 148.521 108.365L155.589 124.365C155.611 124.416 155.648 124.46 155.695 124.491C155.741 124.522 155.796 124.539 155.852 124.539C155.899 124.542 155.947 124.532 155.99 124.512H155.971ZM157.195 122.303L174.124 119.883C174.165 119.882 174.206 119.872 174.243 119.855C174.279 119.837 174.312 119.812 174.339 119.781C174.365 119.75 174.385 119.714 174.397 119.674C174.408 119.635 174.411 119.594 174.406 119.553C174.4 119.513 174.386 119.474 174.364 119.439C174.343 119.405 174.314 119.375 174.28 119.352C174.246 119.329 174.208 119.314 174.167 119.307C174.127 119.3 174.086 119.302 174.046 119.312L157.117 121.733C157.041 121.737 156.971 121.772 156.921 121.829C156.871 121.886 156.845 121.961 156.85 122.036C156.855 122.112 156.89 122.183 156.947 122.233C157.004 122.283 157.078 122.308 157.154 122.303H157.195ZM152.368 133.103C152.428 133.056 152.467 132.987 152.477 132.911C152.486 132.835 152.465 132.759 152.419 132.698L143.243 120.909C143.22 120.879 143.191 120.853 143.158 120.834C143.125 120.815 143.088 120.803 143.05 120.798C143.013 120.793 142.974 120.796 142.937 120.806C142.901 120.816 142.866 120.833 142.836 120.856C142.806 120.879 142.78 120.908 142.761 120.941C142.742 120.974 142.73 121.011 142.725 121.049C142.72 121.086 142.723 121.125 142.733 121.162C142.743 121.198 142.76 121.233 142.783 121.263L151.977 133.071C152.004 133.105 152.038 133.133 152.077 133.152C152.116 133.171 152.159 133.181 152.202 133.181C152.271 133.178 152.336 133.15 152.387 133.103H152.368ZM166.707 129.914C166.709 129.838 166.682 129.764 166.63 129.708C166.578 129.652 166.507 129.619 166.431 129.615L153.818 128.975C153.747 128.98 153.68 129.011 153.63 129.062C153.581 129.113 153.551 129.18 153.548 129.251C153.545 129.322 153.567 129.391 153.612 129.447C153.657 129.502 153.72 129.539 153.79 129.551L166.426 130.19C166.502 130.193 166.576 130.165 166.632 130.114C166.688 130.062 166.721 129.99 166.725 129.914H166.707ZM160.757 139.274C160.761 139.236 160.758 139.198 160.747 139.161C160.737 139.124 160.719 139.09 160.695 139.061C160.671 139.031 160.641 139.007 160.608 138.989C160.574 138.971 160.537 138.96 160.499 138.956L150.836 138.004C150.798 138 150.76 138.004 150.724 138.015C150.688 138.025 150.655 138.043 150.626 138.067C150.596 138.091 150.572 138.121 150.555 138.154C150.537 138.187 150.526 138.224 150.523 138.261C150.516 138.337 150.54 138.412 150.588 138.47C150.636 138.529 150.705 138.566 150.781 138.574L160.444 139.531H160.472C160.546 139.537 160.619 139.513 160.676 139.464C160.733 139.416 160.768 139.348 160.775 139.274H160.757ZM148.632 144.262C148.696 144.22 148.74 144.154 148.756 144.079C148.771 144.004 148.756 143.926 148.714 143.862L143.938 136.642C143.894 136.579 143.828 136.537 143.754 136.522C143.679 136.507 143.602 136.522 143.538 136.563C143.474 136.606 143.429 136.672 143.414 136.747C143.398 136.822 143.413 136.9 143.455 136.964L148.231 144.184C148.259 144.223 148.295 144.255 148.337 144.278C148.38 144.3 148.427 144.312 148.475 144.313C148.537 144.316 148.599 144.298 148.65 144.262H148.632ZM159.593 146.678C159.591 146.602 159.561 146.53 159.508 146.476C159.455 146.422 159.383 146.39 159.307 146.388L147.946 146.282C147.87 146.282 147.798 146.312 147.744 146.366C147.691 146.419 147.661 146.492 147.661 146.567C147.659 146.605 147.666 146.643 147.68 146.679C147.694 146.714 147.714 146.746 147.741 146.773C147.768 146.801 147.8 146.822 147.835 146.836C147.87 146.851 147.908 146.858 147.946 146.857L159.307 146.963C159.346 146.965 159.385 146.959 159.421 146.946C159.458 146.932 159.491 146.911 159.52 146.885C159.548 146.858 159.571 146.826 159.586 146.791C159.602 146.755 159.61 146.717 159.611 146.678H159.593ZM144.348 163.667C144.371 163.616 146.308 158.278 152.133 157.004C152.208 156.987 152.274 156.942 152.315 156.877C152.357 156.812 152.371 156.734 152.354 156.659C152.336 156.585 152.289 156.522 152.225 156.481C152.161 156.441 152.083 156.427 152.009 156.442C145.866 157.786 143.828 163.423 143.805 163.478C143.781 163.551 143.786 163.63 143.82 163.699C143.853 163.767 143.912 163.82 143.984 163.846H144.076C144.137 163.852 144.198 163.837 144.251 163.805C144.303 163.772 144.343 163.724 144.366 163.667H144.348Z" fill="black"/>
<path d="M153.155 159.774H140.128V162.47H141.265L143.616 177.182H149.667L152.018 162.47H153.155V159.774Z" fill="#9B7B39"/>
<path opacity="0.3" d="M153.155 159.774H140.128V162.47H141.265L143.616 177.182H149.667L152.018 162.47H153.155V159.774Z" fill="white"/>
<path d="M35.8693 78.2337L20.7162 73.287L19.3679 69.7253L16.2895 69.6287L10.7031 68.5703L11.375 69.7253L18.4062 74.8285L20.141 75.6936L35.9889 83.9719L35.8693 78.2337Z" fill="white" stroke="#263238" stroke-width="0.574746" stroke-miterlimit="10"/>
<path d="M19.3682 69.7252L17.9233 68.8601L15.0381 69.9185L15.5166 70.4937L19.3682 69.7252Z" fill="white" stroke="#263238" stroke-width="0.574746" stroke-linejoin="round"/>
<path d="M35.8693 78.2337L20.7162 73.287L19.3679 69.7253L16.2895 69.6287L10.7031 68.5703L11.375 69.7253L18.4062 74.8285L20.141 75.6936L35.9889 83.9719L35.8693 78.2337Z" fill="white"/>
<mask id="mask0_261_9414" style="mask-type:luminance" maskUnits="userSpaceOnUse" x="10" y="68" width="26" height="16">
<path d="M35.8693 78.2337L20.7162 73.287L19.3679 69.7253L16.2895 69.6287L10.7031 68.5703L11.375 69.7253L18.4062 74.8285L20.141 75.6936L35.9889 83.9719L35.8693 78.2337Z" fill="white"/>
</mask>
<g mask="url(#mask0_261_9414)">
<path opacity="0.5" d="M35.8693 78.2337L20.7162 73.287L19.3679 69.7253L16.2895 69.6287L10.7031 68.5703L11.375 69.7253L18.4062 74.8285L20.141 75.6936L35.9889 83.9719L35.8693 78.2337Z" fill="#9B7B39" stroke="#263238" stroke-width="0.574746" stroke-miterlimit="10"/>
</g>
<path d="M35.8693 78.2337L20.7162 73.2869L19.3679 69.7253L16.2895 69.6287L10.7031 68.5703L11.375 69.7253L18.4062 74.8285L20.141 75.6936L35.9889 83.9719L35.8693 78.2337Z" stroke="#263238" stroke-width="0.574746" stroke-miterlimit="10"/>
<path d="M19.3682 69.7252L17.9233 68.8601L15.0381 69.9185L15.5166 70.4937L19.3682 69.7252Z" fill="white"/>
<mask id="mask1_261_9414" style="mask-type:luminance" maskUnits="userSpaceOnUse" x="15" y="68" width="5" height="3">
<path d="M19.3682 69.7252L17.9233 68.8601L15.0381 69.9185L15.5166 70.4937L19.3682 69.7252Z" fill="white"/>
</mask>
<g mask="url(#mask1_261_9414)">
<path opacity="0.5" d="M19.3682 69.7252L17.9233 68.8601L15.0381 69.9185L15.5166 70.4937L19.3682 69.7252Z" fill="#9B7B39" stroke="#263238" stroke-width="0.574746" stroke-linejoin="round"/>
</g>
<path d="M19.3682 69.7252L17.9233 68.8601L15.0381 69.9185L15.5166 70.4937L19.3682 69.7252Z" stroke="#263238" stroke-width="0.574746" stroke-linejoin="round"/>
<path d="M39.0861 46.1282C39.0861 46.1282 38.8514 48.1989 39.4358 49.5287C40.0202 50.8586 43.2644 55.3636 43.2644 55.3636L37.2087 60.2182C37.2087 60.2182 34.6962 55.1565 34.2176 54.3374C33.7391 53.5183 33.1639 49.9935 34.7238 47.4672C36.2837 44.9409 38.5293 44.2599 39.0861 46.1282Z" fill="white"/>
<mask id="mask2_261_9414" style="mask-type:luminance" maskUnits="userSpaceOnUse" x="33" y="45" width="11" height="16">
<path d="M39.0861 46.1282C39.0861 46.1282 38.8514 48.1989 39.4358 49.5287C40.0202 50.8586 43.2644 55.3636 43.2644 55.3636L37.2087 60.2182C37.2087 60.2182 34.6962 55.1565 34.2176 54.3374C33.7391 53.5183 33.1639 49.9935 34.7238 47.4672C36.2837 44.9409 38.5293 44.2599 39.0861 46.1282Z" fill="white"/>
</mask>
<g mask="url(#mask2_261_9414)">
<g style="mix-blend-mode:multiply" opacity="0.5">
<path d="M35.9752 52.782L38.6027 58.2303L37.2038 60.2228L34.5625 55.5061L35.9752 52.782Z" fill="#9B7B39"/>
</g>
</g>
<path d="M39.0861 46.1282C39.0861 46.1282 38.8514 48.1989 39.4358 49.5287C40.0202 50.8586 43.2644 55.3636 43.2644 55.3636L37.2087 60.2182C37.2087 60.2182 34.6962 55.1565 34.2176 54.3374C33.7391 53.5183 33.1639 49.9935 34.7238 47.4672C36.2837 44.9409 38.5293 44.2599 39.0861 46.1282Z" stroke="#263238" stroke-width="0.574746" stroke-miterlimit="10"/>
<path d="M40.9635 42.3365C40.5907 40.0357 37.954 35.3558 33.7712 35.5353C31.0562 35.6549 29.7862 36.2025 28.6082 36.8698C27.648 37.4355 26.7529 38.1052 25.9393 38.8668C23.8962 41.3195 23.1783 41.9913 23.574 43.8688C23.5416 44.6176 23.6589 45.3654 23.9192 46.0683C24.545 47.7387 24.9729 48.8293 25.5159 49.6254C25.3503 50.4031 24.9177 52.4554 24.8947 52.9247C24.8717 53.3941 26.2752 53.0674 26.9838 52.8879C28.2999 55.8329 30.7111 57.876 31.4612 58.1107C32.768 58.5203 34.8342 56.3713 35.9293 54.7055C37.0245 53.0398 36.1962 51.1669 36.2008 50.4215C36.2054 49.676 38.6627 48.0378 39.5738 47.5179C40.4849 46.9979 41.3316 44.6327 40.9635 42.3365Z" fill="white"/>
<mask id="mask3_261_9414" style="mask-type:luminance" maskUnits="userSpaceOnUse" x="23" y="35" width="19" height="24">
<path d="M40.9635 42.3365C40.5907 40.0357 37.954 35.3558 33.7712 35.5353C31.0562 35.6549 29.7862 36.2025 28.6082 36.8698C27.648 37.4355 26.7529 38.1052 25.9393 38.8668C23.8962 41.3195 23.1783 41.9913 23.574 43.8688C23.5416 44.6176 23.6589 45.3654 23.9192 46.0683C24.545 47.7387 24.9729 48.8293 25.5159 49.6254C25.3503 50.4031 24.9177 52.4554 24.8947 52.9247C24.8717 53.3941 26.2752 53.0674 26.9838 52.8879C28.2999 55.8329 30.7111 57.876 31.4612 58.1107C32.768 58.5203 34.8342 56.3713 35.9293 54.7055C37.0245 53.0398 36.1962 51.1669 36.2008 50.4215C36.2054 49.676 38.6627 48.0378 39.5738 47.5179C40.4849 46.9979 41.3316 44.6327 40.9635 42.3365Z" fill="white"/>
</mask>
<g mask="url(#mask3_261_9414)">
<g style="mix-blend-mode:multiply" opacity="0.5">
<path d="M23.5927 43.8687C23.5603 44.6176 23.6776 45.3654 23.9379 46.0683C24.5637 47.7387 24.9916 48.8293 25.5346 49.6253C25.3689 50.403 24.9364 52.4553 24.9134 52.9247C24.8904 53.394 26.2939 53.0673 27.0025 52.8879C28.3186 55.8329 30.7298 57.876 31.4799 58.1107C32.7867 58.5202 34.8528 56.3713 35.948 54.7055C36.2216 54.2896 36.3993 53.8181 36.468 53.325C36.4082 53.1087 36.3668 52.9753 36.3668 52.9753C36.3668 52.9753 35.7502 55.3451 34.5261 55.0368C33.3021 54.7285 31.4293 52.2759 30.3847 51.4292C29.3401 50.5825 29.7681 49.4689 29.561 48.208C29.3539 46.9472 26.2617 45.8382 26.0546 45.1158C25.8475 44.3933 26.57 41.4023 26.57 41.4023C26.57 41.4023 27.7434 39.8377 27.4903 40.482C27.3114 41.0406 27.2465 41.6294 27.2995 42.2135C27.3524 42.7977 27.5222 43.3652 27.7986 43.8825C27.9926 44.2907 28.3003 44.6342 28.6847 44.8718C29.0692 45.1093 29.5141 45.2308 29.9659 45.2216L31.0887 39.6583L28.7189 37.698L25.958 38.8484C23.8964 41.3195 23.1924 41.9913 23.5927 43.8687Z" fill="#9B7B39"/>
</g>
</g>
<path d="M40.9635 42.3365C40.5907 40.0357 37.954 35.3558 33.7712 35.5353C31.0562 35.6549 29.7862 36.2025 28.6082 36.8698C27.648 37.4355 26.7529 38.1052 25.9393 38.8668C23.8962 41.3195 23.1783 41.9913 23.574 43.8688C23.5416 44.6176 23.6589 45.3654 23.9192 46.0683C24.545 47.7387 24.9729 48.8293 25.5159 49.6254C25.3503 50.4031 24.9177 52.4554 24.8947 52.9247C24.8717 53.3941 26.2752 53.0674 26.9838 52.8879C28.2999 55.8329 30.7111 57.876 31.4612 58.1107C32.768 58.5203 34.8342 56.3713 35.9293 54.7055C37.0245 53.0398 36.1962 51.1669 36.2008 50.4215C36.2054 49.676 38.6627 48.0378 39.5738 47.5179C40.4849 46.9979 41.3316 44.6327 40.9635 42.3365Z" stroke="#263238" stroke-width="0.572479" stroke-miterlimit="10"/>
<path d="M26.0869 48.2358L26.5471 49.5519C26.5471 49.5519 27.5364 49.8786 28.742 48.5626" stroke="#263238" stroke-width="0.572479" stroke-miterlimit="10" stroke-linecap="round"/>
<path d="M29.4873 54.3835C29.4873 54.3835 30.5825 54.273 31.0242 52.7361" stroke="#263238" stroke-width="0.572479" stroke-miterlimit="10" stroke-linecap="round"/>
<path d="M25.3184 47.1361C25.3184 47.1361 25.6451 46.1467 27.6192 46.1467" stroke="#263238" stroke-width="0.572479" stroke-miterlimit="10" stroke-linecap="round"/>
<path d="M35.4371 33.7039C34.0027 33.4976 32.5561 33.3869 31.107 33.3726C31.107 33.3726 26.7723 30.8739 22.6078 33.5382C18.4434 36.2026 20.4451 40.8686 20.4451 42.0328C20.4451 43.197 19.1106 43.2016 19.9435 44.7017C20.7764 46.2018 23.5926 45.3736 23.5926 45.3736C23.6223 44.8078 23.7719 44.2547 24.0313 43.751C24.2906 43.2473 24.654 42.8044 25.0973 42.4515C26.5974 41.2873 27.7938 41.0342 28.2908 41.3702C28.2908 41.3702 27.9595 43.8688 28.4565 44.8674C28.4565 44.8674 30.1222 45.7003 30.6238 45.7003C31.1254 45.7003 30.2971 46.4043 31.9583 47.0301C32.2609 47.1388 32.5847 47.1759 32.904 47.1383C33.2234 47.1008 33.5297 46.9897 33.7989 46.8139C34.0428 45.8015 34.5766 44.2784 35.5705 44.6327C37.0292 45.1527 38.3591 48.7419 36.385 49.9659C38.7594 50.3985 41.6354 46.1972 41.8057 42.3687C41.976 38.5402 37.9035 34.1365 35.4371 33.7039Z" fill="#263238"/>
<path d="M28.3643 39.7273C28.3643 39.7273 29.5883 39.0693 31.0884 40.4774C32.5885 41.8855 35.5059 43.7675 39.3713 42.7322" stroke="white" stroke-width="0.286239" stroke-linecap="round" stroke-linejoin="round"/>
<path d="M28.1943 38.6C28.1943 38.6 29.0364 37.2839 30.4445 37.2839C31.8526 37.2839 35.1427 39.258 37.7703 39.258" stroke="white" stroke-width="0.286239" stroke-linecap="round" stroke-linejoin="round"/>
<path d="M27.2375 41.1356C27.2375 41.1356 25.6408 39.1661 24.1406 40.7629C22.6405 42.3596 23.5931 43.8689 23.5931 43.8689" stroke="white" stroke-width="0.286239" stroke-linecap="round" stroke-linejoin="round"/>
<path d="M20.8545 42.4516C21.7695 41.6264 22.3383 40.4855 22.4466 39.2581C22.6353 37.192 25.4561 35.4066 27.2369 37.1" stroke="white" stroke-width="0.286239" stroke-linecap="round" stroke-linejoin="round"/>
<path d="M23.7627 34.9371C23.7627 34.9371 26.5835 32.213 28.9303 35.6872" stroke="white" stroke-width="0.286239" stroke-linecap="round" stroke-linejoin="round"/>
<path d="M46.7198 168.876C46.7198 168.876 48.4546 171.572 48.2613 173.307L48.0727 175.042C48.0727 175.042 41.7087 176.786 40.3604 176.786C39.0121 176.786 31.875 176.109 31.875 176.109L31.5667 174.885C31.5452 174.795 31.5553 174.7 31.5955 174.616C31.6358 174.532 31.7036 174.465 31.7876 174.425L38.1516 171.457L40.1579 169.262L46.7198 168.876Z" fill="white" stroke="#263238" stroke-width="0.574746" stroke-miterlimit="10"/>
<path d="M41.3269 175.429C43.0525 175.562 46.3288 174.508 48.2292 173.836L48.0958 175.042C48.0958 175.042 41.7088 176.786 40.3605 176.786C39.0123 176.786 31.8752 176.11 31.8752 176.11L31.6543 175.235C32.7955 175.24 39.0445 175.254 41.3269 175.429Z" fill="#9B7B39" stroke="#263238" stroke-width="0.574746" stroke-miterlimit="10"/>
<path d="M38.1607 171.457L28.8977 175.488C28.8977 175.488 28.1062 177.472 28.8977 177.867C29.6891 178.263 46.9451 177.867 46.9451 177.867C46.9451 177.867 48.1369 174.734 46.2549 172.631C44.3728 170.528 38.1607 171.457 38.1607 171.457Z" fill="white" stroke="#263238" stroke-width="0.574746" stroke-miterlimit="10"/>
<path d="M46.9458 177.867C46.9458 177.867 29.6899 178.263 28.8984 177.867C28.5164 177.674 28.5026 177.117 28.5901 176.588H47.2496C47.1886 177.023 47.0869 177.451 46.9458 177.867Z" fill="#9B7B39" stroke="#263238" stroke-width="0.574746" stroke-miterlimit="10"/>
<path d="M33.7807 101.417C33.7807 101.417 31.3602 112.143 30.4445 118.852C29.5288 125.561 28.9904 139.002 29.1837 140.544C29.3769 142.085 39.0127 167.914 39.0127 167.914L39.9744 170.215L46.7204 168.867C46.7204 168.867 43.6373 159.038 42.4823 153.64C41.3273 148.242 38.801 139.375 38.801 137.834C38.801 136.292 44.7831 106.851 45.211 104.918C45.639 102.986 47.5809 100.018 47.5809 100.018L34.6642 99.7554L33.7807 101.417Z" fill="#9B7B39" stroke="#263238" stroke-width="0.574746" stroke-miterlimit="10"/>
<path d="M33.7808 101.416C33.7808 101.416 32.3635 111.213 32.9479 118.024C33.5323 124.834 34.7886 139.334 34.7886 141.492C34.7886 143.65 38.272 156.539 38.4699 160.588C38.7782 166.437 38.3456 169.331 38.3456 169.331L38.1385 171.453C38.1385 171.453 42.2017 172.033 43.0899 172.286C44.1156 172.55 45.1742 172.665 46.2327 172.626C46.2327 172.626 47.7099 166.124 47.7099 160.584C47.7099 155.043 46.4812 143.641 45.8692 139.021C45.2572 134.401 47.1853 116.579 48.2805 113.252C49.3756 109.925 51.7685 102.88 50.1579 99.2813C48.5474 95.6829 33.7808 101.416 33.7808 101.416Z" fill="#9B7B39" stroke="#263238" stroke-width="0.574746" stroke-miterlimit="10"/>
<path d="M51.9475 97.4775L51.8002 101.858C51.8002 101.858 49.1773 102.378 45.6433 102.99C42.7259 103.496 35.4001 102.857 32.9337 102.618C32.7089 102.598 32.5011 102.49 32.3555 102.317C32.2098 102.145 32.1381 101.922 32.156 101.697L32.3953 97.7398L51.9475 97.4775Z" fill="#263238"/>
<path d="M41.6954 53.8083C41.6954 53.8083 37.5539 58.2857 35.994 61.0697C34.4341 63.8536 33.8174 68.1193 33.233 71.4785C32.6486 74.8376 34.2316 82.7248 33.7852 86.3463L32.3725 97.7536C32.3725 97.7536 32.0688 98.5267 33.0858 99.3734C34.1027 100.22 39.0679 100.528 43.5544 100.754C45.1926 100.837 50.0841 99.7829 50.8848 99.7323C51.8511 99.6725 51.8833 98.4438 51.9247 97.4775C52.118 92.9357 52.9371 80.8289 53.4755 75.5555C54.5845 64.8016 48.5149 54.4204 41.6954 53.8083Z" fill="white" stroke="#263238" stroke-width="0.574746" stroke-miterlimit="10"/>
<g style="mix-blend-mode:multiply">
<path d="M52.9689 81.6709C53.153 79.2827 53.337 77.1153 53.4981 75.5554C53.5441 75.0952 53.5717 74.6351 53.5947 74.1749L42.5923 76.0156L33.1406 72.7944C33.1417 74.7502 33.2523 76.7043 33.4719 78.6477L42.7442 81.243L52.9689 81.6709Z" fill="#9B7B39"/>
</g>
<g style="mix-blend-mode:multiply">
<path d="M41.2852 54.2593C40.6594 54.9541 39.417 56.3668 38.2344 57.8669L45.2196 64.9672L47.5204 64.0469L41.2852 54.2593Z" fill="#9B7B39"/>
</g>
<path d="M41.6955 53.8083C41.6955 53.8083 37.5541 58.2857 35.9942 61.0697C35.5316 61.9157 35.1569 62.807 34.876 63.7294L43.2049 54.1075C42.7128 53.9584 42.2073 53.8582 41.6955 53.8083Z" fill="#263238"/>
<g style="mix-blend-mode:multiply">
<path d="M33.5547 69.6654L42.5922 72.638L53.567 71.3772C53.395 68.6432 52.7876 65.9543 51.7678 63.4118L42.9189 66.9596L35.0088 63.375C34.362 65.431 33.8758 67.5341 33.5547 69.6654Z" fill="#9B7B39"/>
</g>
<g style="mix-blend-mode:multiply">
<path d="M49.113 92.9356C44.5293 93.7052 39.8259 93.3209 35.4279 91.8174L33.2237 91.0627L32.5381 96.5847L35.0506 97.2887C39.8269 98.6241 44.8189 99.0087 49.7435 98.4207L51.7728 98.1768C51.8784 97.9532 51.9378 97.7106 51.9476 97.4636C52.0028 96.2349 52.0995 94.4495 52.2237 92.4018L49.113 92.9356Z" fill="#9B7B39"/>
</g>
<g style="mix-blend-mode:multiply">
<path d="M50.3417 85.4166C45.7577 86.1892 41.0533 85.8032 36.6565 84.2938L33.8496 83.332C33.9192 84.3346 33.9053 85.3412 33.8082 86.3415L33.4814 88.9966L36.2792 89.7789C41.0537 91.1157 46.0442 91.5019 50.9675 90.9155L52.348 90.7498C52.463 88.9092 52.5965 86.9489 52.7391 85.0116L50.3417 85.4166Z" fill="#9B7B39"/>
</g>
<path d="M7.17002 65.9574L16.0674 73.1111L16.4509 72.6341L7.55351 65.4805L7.17002 65.9574Z" fill="#263238"/>
<path d="M45.9792 58.7734C45.9792 58.7734 49.2418 60.996 49.3154 66.2464C49.3476 68.5472 49.1083 70.6962 48.5792 74.4649C48.05 78.2336 44.7644 90.5061 42.2059 91.997C39.6474 93.4879 35.6763 90.6717 35.6763 90.6717L16.4692 77.9207L11.8262 74.1704L9.52539 69.8265L10.2478 68.446L15.9124 72.7899L12.8615 69.9691L13.4598 69.2099L14.5641 69.9783L17.7853 71.1839L18.4893 75.7855L19.4832 76.4666L37.8574 83.1803C37.8574 83.1803 37.6273 73.2915 37.7976 71.4002C37.9679 69.509 38.2025 64.7555 40.2272 61.3089" fill="white"/>
<mask id="mask4_261_9414" style="mask-type:luminance" maskUnits="userSpaceOnUse" x="9" y="58" width="41" height="35">
<path d="M45.9792 58.7734C45.9792 58.7734 49.2418 60.996 49.3154 66.2464C49.3476 68.5472 49.1083 70.6962 48.5792 74.4649C48.05 78.2336 44.7644 90.5061 42.2059 91.997C39.6474 93.4879 35.6763 90.6717 35.6763 90.6717L16.4692 77.9207L11.8262 74.1704L9.52539 69.8265L10.2478 68.446L15.9124 72.7899L12.8615 69.9691L13.4598 69.2099L14.5641 69.9783L17.7853 71.1839L18.4893 75.7855L19.4832 76.4666L37.8574 83.1803C37.8574 83.1803 37.6273 73.2915 37.7976 71.4002C37.9679 69.509 38.2025 64.7555 40.2272 61.3089" fill="white"/>
</mask>
<g mask="url(#mask4_261_9414)">
<g style="mix-blend-mode:multiply" opacity="0.5">
<path d="M37.7289 75.7074C37.7289 79.1218 37.8439 83.1804 37.8439 83.1804L19.4881 76.4942L18.4942 75.8132L17.7902 71.2116L14.569 70.006L13.4693 69.2237L12.871 69.983L15.9127 72.79L10.2481 68.446L9.5625 69.8035L11.8633 74.1474L16.5063 77.9207L17.6751 78.6984L43.0529 86.8754L37.7289 75.7074Z" fill="#9B7B39"/>
</g>
</g>
<path d="M45.9792 58.7734C45.9792 58.7734 49.2418 60.996 49.3154 66.2464C49.3476 68.5472 49.1083 70.6962 48.5792 74.4649C48.05 78.2336 44.7644 90.5061 42.2059 91.997C39.6474 93.4879 35.6763 90.6717 35.6763 90.6717L16.4692 77.9207L11.8262 74.1704L9.52539 69.8265L10.2478 68.446L15.9124 72.7899L12.8615 69.9691L13.4598 69.2099L14.5641 69.9783L17.7853 71.1839L18.4893 75.7855L19.4832 76.4666L37.8574 83.1803C37.8574 83.1803 37.6273 73.2915 37.7976 71.4002C37.9679 69.509 38.2025 64.7555 40.2272 61.3089" stroke="#263238" stroke-width="0.574746" stroke-miterlimit="10"/>
<path d="M37.8573 83.1804L44.8701 88.2421L46.6877 85.021C46.6877 85.021 47.944 84.0317 48.1281 83.2862C48.3121 82.5408 48.0774 81.3305 48.2661 80.5851C48.4548 79.8396 49.3935 79.1402 49.4809 77.3363C49.5683 75.5325 49.4809 74.0278 49.4809 74.0278C49.4809 74.0278 50.9994 67.7834 50.8338 65.0685C50.6681 62.3535 48.0498 57.5541 45.9515 57.4482C43.8532 57.3424 41.1244 57.6599 39.0077 60.8626C36.8909 64.0653 37.3235 73.4158 36.9922 74.0002C36.6609 74.5846 37.121 77.4698 37.121 77.4698C36.9371 77.607 36.7845 77.7817 36.6735 77.9825C36.5624 78.1832 36.4953 78.4053 36.4768 78.634C36.44 79.3841 37.2499 81.2293 37.2499 81.2293L37.8573 83.1804Z" fill="white" stroke="#263238" stroke-width="0.574746" stroke-miterlimit="10"/>
<g style="mix-blend-mode:multiply">
<path d="M37.1764 71.5981C37.1908 72.4011 37.1307 73.2037 36.9969 73.9956C36.7024 74.5202 37.0383 76.89 37.1119 77.3732C41.0563 78.5983 45.2272 78.9129 49.3108 78.2935C49.3985 77.9734 49.451 77.6448 49.4672 77.3133C49.5593 75.5141 49.4672 74.0048 49.4672 74.0048C49.4672 74.0048 49.6007 73.448 49.7847 72.6013C45.5556 72.8701 41.3098 72.5323 37.1764 71.5981Z" fill="#9B7B39"/>
</g>
<g style="mix-blend-mode:multiply">
<path d="M38.7222 61.3733C38.0642 62.6939 37.696 64.6772 37.4844 66.6881C41.6618 68.2824 46.1657 68.8306 50.6035 68.2849C50.7806 67.2207 50.8592 66.1424 50.8382 65.0638C50.7585 64.2112 50.5571 63.3744 50.24 62.5789C46.3651 62.6694 42.4944 62.2642 38.7222 61.3733Z" fill="#9B7B39"/>
</g>
<path d="M37.25 81.2798L37.8436 83.1802L44.8564 88.242L46.6741 85.0209C46.6741 85.0209 47.9303 84.0315 48.1144 83.2861C48.1472 83.1564 48.1672 83.0239 48.1742 82.8903C44.4786 82.8265 40.8068 82.2852 37.25 81.2798Z" fill="#263238"/>
<path d="M42.3256 172.226C42.3256 172.226 42.4821 168.241 43.2459 162.415C44.0098 156.59 42.1738 148.316 41.8655 146.936C41.5571 145.555 42.0219 142.49 41.7136 141.414C41.4053 140.337 39.9144 135.744 40.7933 130.416C41.6722 125.087 42.3854 111.002 42.3854 111.002C42.3854 111.002 40.1721 109.202 39.5232 106.86C38.8744 104.518 39.3714 103.782 39.3714 103.782" stroke="#263238" stroke-width="0.574746" stroke-miterlimit="10"/>
<path d="M43.3523 103.998L42.501 108.71" stroke="#263238" stroke-width="0.574746" stroke-miterlimit="10"/>
</svg>
